<svg xmlns="http://www.w3.org/2000/svg" viewBox="0 0 64 64" id="veterinary-doctor-team"><path fill="#5d9cec" d="M56.99,44.51,54,51.5l-2.99-6.99a5.0102,5.0102,0,0,0,5.98,0Z"></path><path fill="#eac6bb" d="M55,31.5a7.97465,7.97465,0,0,1,6,2.71v.29a6.9558,6.9558,0,0,1-4,6.31,6.95765,6.95765,0,0,1-6,0,6.9558,6.9558,0,0,1-4-6.31v-3a3.00237,3.00237,0,0,0,3-3,3.00237,3.00237,0,0,0,3,3Z"></path><path fill="#e9573f" d="M50,28.5a3.00237,3.00237,0,0,1-3,3v-5a2.99384,2.99384,0,0,1,3-2.99Z"></path><path fill="#d3b1a9" d="M57,40.82V44.5l-.01.01a5.0102,5.0102,0,0,1-5.98,0L51,44.5V40.81a6.95765,6.95765,0,0,0,6,0Z"></path><path fill="#fc6e51" d="M61,34.21a7.97465,7.97465,0,0,0-6-2.71H53a3.00237,3.00237,0,0,1-3-3v-5a8.18663,8.18663,0,0,1,5-2,7.9978,7.9978,0,0,1,8,8v10A7.93636,7.93636,0,0,0,61,34.21Z"></path><path fill="#d3b1a9" d="M13,40.82V44.5l-.01.01A4.43093,4.43093,0,0,1,10,45.5a4.43093,4.43093,0,0,1-2.99-.99L7,44.5V40.81a6.95765,6.95765,0,0,0,6,0Z"></path><path fill="#5d9cec" d="M12.99,44.51,10,51.5,7.01,44.51A4.43093,4.43093,0,0,0,10,45.5,4.43093,4.43093,0,0,0,12.99,44.51Z"></path><path fill="#eac6bb" d="M17,31.37V34.5a6.9558,6.9558,0,0,1-4,6.31,6.95765,6.95765,0,0,1-6,0A6.9558,6.9558,0,0,1,3,34.5V30.64c5.81.67,8.13-1.27,10-1.66C14.24,28.72,15.28,29.13,17,31.37Z"></path><path fill="#f6bb42" d="M17,30v1.37c-1.72-2.24-2.76-2.65-4-2.39l1.99-4.07A7.42045,7.42045,0,0,1,17,30Z"></path><path fill="#ffce54" d="M3,30.64c-.32-.04-.65-.08-1-.14V30a7.48724,7.48724,0,0,1,12.99-5.09L13,28.98C11.13,29.37,8.81,31.31,3,30.64Z"></path><path fill="#d3b1a9" d="M36,49.56V53.5l-.01.02a4.35427,4.35427,0,0,1-3.96,1.98,4.51783,4.51783,0,0,1-4.02-1.98L28,53.5V49.56a8.98064,8.98064,0,0,0,8,0Z"></path><path fill="#965353" d="M26,36.5l-3,2.03V35.5a7.99718,7.99718,0,0,1,7.59-7.99H37V31.5a3.9989,3.9989,0,0,1,4,4v3.03L38,36.5a13.3235,13.3235,0,0,1-5.5,1A23.0982,23.0982,0,0,1,26,36.5Z"></path><polygon fill="#fff" points="51.01 44.51 54 51.5 51 51.5 48 44.5 51 44.5 51.01 44.51"></polygon><polygon fill="#fff" points="60 44.5 57 51.5 54 51.5 56.99 44.51 57 44.5 60 44.5"></polygon><polygon fill="#fff" points="16 44.5 13 51.5 13 51.53 10 51.53 10 51.5 12.99 44.51 13 44.5 16 44.5"></polygon><polygon fill="#fff" points="7.01 44.51 10 51.5 10 51.53 7 51.53 7 51.5 4 44.5 7 44.5 7.01 44.51"></polygon><polygon fill="#fff" points="28.01 53.52 31 62.5 28 62.5 25 53.5 28 53.5 28.01 53.52"></polygon><polygon fill="#fff" points="39 53.5 36 62.5 33 62.5 35.99 53.52 36 53.5 39 53.5"></polygon><path fill="#eac6bb" d="M41,38.53V41.5a9.00008,9.00008,0,0,1-18,.05V38.53l3-2.03a23.0982,23.0982,0,0,0,6.5,1,13.3235,13.3235,0,0,0,5.5-1Z"></path><path fill="#5d9cec" d="M35.99,53.52,33,62.5H31l-2.99-8.98a4.51783,4.51783,0,0,0,4.02,1.98A4.35427,4.35427,0,0,0,35.99,53.52Z"></path><path fill="#e6e9ed" d="M48 44.5l3 7H45v-4A2.996 2.996 0 0148 44.5zM60 44.5a2.996 2.996 0 013 3v4H57zM16 44.5a2.996 2.996 0 013 3v4.03H13V51.5zM4 44.5l3 7v.03H1V47.5A2.996 2.996 0 014 44.5zM25 53.5l3 9H20v-4A5.00182 5.00182 0 0125 53.5zM39 53.5a5.00182 5.00182 0 015 5v4H36zM32 12.5a3.43774 3.43774 0 013.5 3.36 3.2953 3.2953 0 01-1.35 2.64 2.53723 2.53723 0 00-4.3 0 3.2953 3.2953 0 01-1.35-2.64A3.43774 3.43774 0 0132 12.5z"></path><circle cx="27" cy="10" r="1.5" fill="#e6e9ed"></circle><path fill="#5d9cec" d="M28.5,10A1.5,1.5,0,1,0,27,11.5,1.498,1.498,0,0,0,28.5,10ZM32,12.5a3.43774,3.43774,0,0,0-3.5,3.36,3.2953,3.2953,0,0,0,1.35,2.64,2.53723,2.53723,0,0,1,4.3,0,3.2953,3.2953,0,0,0,1.35-2.64A3.43774,3.43774,0,0,0,32,12.5Zm5-4A1.5,1.5,0,1,0,38.5,10,1.498,1.498,0,0,0,37,8.5Zm-5,1A1.5,1.5,0,1,0,30.5,8,1.498,1.498,0,0,0,32,9.5Zm0-8a11,11,0,1,1-11,11A10.99377,10.99377,0,0,1,32,1.5Z"></path><circle cx="32" cy="8" r="1.5" fill="#e6e9ed"></circle><circle cx="37" cy="10" r="1.5" fill="#e6e9ed"></circle></svg>